<svg version="1.1" id="Layer_1" xmlns="http://www.w3.org/2000/svg" xmlns:xlink="http://www.w3.org/1999/xlink" x="0px" y="0px"
	 width="100%" viewBox="0 0 421 232" enable-background="new 0 0 421 232" xml:space="preserve">
<path fill="#FEFFFF" opacity="1.000000" stroke="none" 
	d="
M401.000244,233.000000 
	C267.333557,233.000000 134.166946,233.000000 1.000245,233.000000 
	C1.000163,155.666809 1.000163,78.333603 1.000082,1.000307 
	C141.333145,1.000205 281.666290,1.000205 421.999573,1.000102 
	C421.999725,78.333122 421.999725,155.666245 421.999878,232.999680 
	C415.166779,233.000000 408.333557,233.000000 401.000244,233.000000 
M356.207886,138.079529 
	C356.220459,124.802757 356.305084,111.524963 356.118378,98.250984 
	C356.102203,97.101669 354.293518,95.977570 353.317444,94.841751 
	C352.486084,95.956017 350.940918,97.064590 350.931976,98.185432 
	C350.823486,111.789246 350.941223,125.394852 350.945129,139.783081 
	C352.901978,141.209412 354.852356,142.593185 356.207886,138.079529 
M44.100742,98.485344 
	C40.820702,96.941055 37.540661,95.396767 33.357880,93.491104 
	C27.581593,93.536110 21.805305,93.581108 15.251492,93.389832 
	C14.811934,93.975174 13.991734,94.558418 13.988490,95.146164 
	C13.907404,109.840073 13.882272,124.534691 13.994638,139.228058 
	C14.000046,139.935226 15.351497,140.632111 16.966476,141.579865 
	C23.356882,141.367462 29.747286,141.155060 36.247086,141.132614 
	C36.247086,141.132614 36.549320,141.147842 36.549320,141.147842 
	C36.549320,141.147842 36.721134,140.892563 37.457645,140.880936 
	C43.148354,139.136276 46.424648,135.037735 46.952374,129.389740 
	C47.608795,122.364487 47.792068,115.243584 47.446762,108.199921 
	C47.295498,105.114296 45.329033,102.117653 44.100742,98.485344 
M176.678818,142.030136 
	C180.467575,141.627472 184.604874,142.025467 187.937378,140.574707 
	C190.719803,139.363434 194.386032,136.077301 194.510986,133.554031 
	C195.165527,120.336739 194.816864,107.069763 194.816864,93.672104 
	C190.494019,93.672104 186.621384,93.672104 182.346588,93.672104 
	C182.346588,95.697990 182.346619,97.334923 182.346573,98.971855 
	C182.346359,108.623833 182.370819,118.275917 182.330353,127.927719 
	C182.318726,130.702164 182.862427,134.055786 178.549362,134.101288 
	C173.966904,134.149673 174.494049,130.643921 174.443558,127.677460 
	C174.395416,124.849251 174.433029,122.019577 174.433014,119.190552 
	C174.432983,110.749184 174.432999,102.307808 174.432999,93.739777 
	C169.953629,93.739777 166.114594,93.739777 162.024002,93.739777 
	C162.024002,105.015045 162.020477,115.820984 162.024979,126.626915 
	C162.029617,137.775085 164.449265,140.472916 176.678818,142.030136 
M145.089554,129.299194 
	C145.083130,120.324875 145.078217,111.350563 145.069733,102.376244 
	C145.064957,97.334915 142.520752,93.863907 137.683884,93.193947 
	C132.502304,92.476234 127.095245,92.166016 121.933525,92.826363 
	C115.092361,93.701576 112.319786,97.515770 112.196701,104.488312 
	C112.079391,111.133995 112.401215,117.794029 112.101860,124.428436 
	C111.581154,135.968750 113.020935,142.427307 130.721558,141.994217 
	C132.365417,141.953995 134.017578,141.630035 135.636414,141.295349 
	C142.994293,139.774155 144.772964,137.665573 145.089554,129.299194 
M65.344421,123.732590 
	C64.118347,129.532974 62.892273,135.333344 61.610706,141.396271 
	C65.552246,141.396271 68.966217,141.396271 72.626556,141.396271 
	C74.844048,129.274246 77.019081,117.384331 79.194122,105.494408 
	C79.480522,105.489952 79.766930,105.485497 80.053337,105.481041 
	C81.677803,117.420731 83.302269,129.360413 84.939796,141.396088 
	C89.172859,141.396088 92.924789,141.396088 97.169945,141.396088 
	C96.874718,139.439285 96.694603,137.823853 96.380959,136.234772 
	C94.289703,125.639549 92.150864,115.053719 90.064606,104.457520 
	C87.818626,93.050003 87.835800,93.211143 76.219536,93.172920 
	C72.727119,93.161430 71.666397,94.579445 71.057991,97.601509 
	C69.353470,106.068100 67.428909,114.490395 65.344421,123.732590 
M381.585052,134.911270 
	C378.464172,134.254425 374.597931,136.400284 371.026123,131.924225 
	C384.244232,131.924225 396.148804,131.924225 408.029663,131.924225 
	C408.029663,127.376625 408.029663,123.372147 408.029663,118.833435 
	C401.772949,118.833435 396.033600,118.833435 390.294281,118.833435 
	C390.212738,118.078857 390.131195,117.324280 390.049652,116.569695 
	C396.399139,114.803734 403.360626,116.882339 410.069061,115.336151 
	C409.897095,113.770195 409.745026,112.385368 409.576752,110.852715 
	C394.987579,110.852715 380.847198,110.847984 366.706818,110.868332 
	C366.076874,110.869240 365.447266,111.098381 364.880463,111.208931 
	C364.256775,115.729370 364.255310,115.802567 367.940918,115.875725 
	C372.267212,115.961609 376.600677,115.799789 380.921448,115.977997 
	C382.064911,116.025162 383.173096,116.927513 384.297516,117.437187 
	C384.153107,117.952942 384.008728,118.468689 383.864319,118.984444 
	C378.119232,118.984444 372.374176,118.984444 366.372620,118.984444 
	C366.372620,120.921883 366.372620,122.290359 366.372620,124.647636 
	C378.523254,124.647636 390.390381,124.647636 402.257538,124.647636 
	C402.248718,125.297638 402.239929,125.947632 402.231110,126.597633 
	C390.339966,126.597633 378.448853,126.597633 366.730316,126.597633 
	C365.256195,135.675262 366.633301,139.675781 371.659821,139.828751 
	C383.752075,140.196747 395.863129,139.947937 408.220398,139.947937 
	C408.220398,138.175644 408.220398,136.785721 408.220398,134.911331 
	C399.472290,134.911331 391.018890,134.911331 381.585052,134.911270 
M242.861588,98.479088 
	C242.133179,97.617088 241.425751,96.028404 240.673080,96.006676 
	C233.928467,95.811989 227.175919,95.893082 220.066788,95.893082 
	C220.066788,105.722740 220.090546,114.848007 220.054382,123.973053 
	C220.041046,127.335144 221.965851,128.172272 224.895279,128.136856 
	C230.719284,128.066376 236.544754,128.116943 242.369629,128.117310 
	C245.421768,128.117508 248.473892,128.117355 251.879776,128.117355 
	C251.879776,132.869354 251.879776,136.648376 251.879776,140.508072 
	C253.972000,140.508072 255.677078,140.508072 257.868896,140.508072 
	C257.868896,129.864700 257.868896,119.622322 257.868896,109.159248 
	C260.599335,108.953308 262.859741,108.782822 265.406128,108.590759 
	C265.406128,106.827080 265.406128,105.290497 265.406128,103.528069 
	C262.722107,103.294464 260.336884,103.086853 258.053101,102.888077 
	C257.313324,93.818420 257.313324,93.818420 251.388824,95.450417 
	C251.388824,104.329056 251.388824,113.385704 251.388824,122.627350 
	C242.717041,122.627350 234.641907,122.627350 226.409927,122.627350 
	C226.409927,115.361427 226.409927,108.354393 226.409927,101.084976 
	C230.807938,101.084976 234.797516,101.229462 238.766418,101.006203 
	C240.145996,100.928589 241.474411,99.940895 242.861588,98.479088 
M277.920441,115.575470 
	C279.294403,116.489075 280.573761,117.612434 282.057800,118.282089 
	C291.387878,122.492172 302.373016,117.001793 303.088806,107.846832 
	C303.582123,101.536987 300.411224,96.649429 294.322662,94.334839 
	C287.801208,91.855682 280.276001,93.843590 276.370575,99.077209 
	C272.810669,103.847794 273.179108,109.595566 277.920441,115.575470 
M321.797424,100.973770 
	C326.232697,100.973770 330.667999,100.973770 335.054230,100.973770 
	C335.708557,115.384010 330.371979,124.376221 316.038971,126.554741 
	C316.121063,128.225235 316.204681,129.926224 316.287689,131.615448 
	C333.922821,130.935242 345.509979,113.829292 340.854248,95.520103 
	C334.037842,95.520103 327.071869,95.419868 320.115875,95.638527 
	C319.176514,95.668068 318.287537,97.300262 317.375244,98.190361 
	C318.547821,99.118141 319.720428,100.045921 321.797424,100.973770 
M268.106079,122.966614 
	C267.492218,124.450424 266.878357,125.934235 265.990845,128.079498 
	C271.319489,128.079498 275.292603,128.079117 279.265686,128.079575 
	C285.814178,128.080353 285.814728,128.080597 285.820435,134.422791 
	C285.822327,136.514969 285.820709,138.607147 285.820709,141.088593 
	C288.116699,140.964096 289.676727,140.879501 291.737610,140.767746 
	C291.737610,136.454819 291.737610,132.549515 291.737610,127.978035 
	C298.273865,127.978035 304.300934,127.978035 310.101837,127.978035 
	C311.385590,124.062965 310.303864,122.829834 306.828674,122.865967 
	C294.216705,122.997093 281.602570,122.919380 268.106079,122.966614 
M402.582428,102.180153 
	C397.808441,101.403694 393.205048,100.690186 390.513275,95.589211 
	C389.943359,94.509247 384.753723,94.225868 384.404144,94.927155 
	C381.233948,101.286736 375.418793,101.786659 369.605530,102.301826 
	C365.714661,102.646637 365.411835,104.564636 366.679993,107.816025 
	C374.486664,108.151512 381.368683,105.868584 387.406677,101.206795 
	C393.622345,106.390976 400.610504,107.957146 408.006348,107.922058 
	C409.859924,102.404449 406.524506,102.448181 402.582428,102.180153 
z"/>
<path fill="#2F89C4" opacity="1.000000" stroke="none" 
	d="
M176.225250,142.003510 
	C164.449265,140.472916 162.029617,137.775085 162.024979,126.626915 
	C162.020477,115.820984 162.024002,105.015045 162.024002,93.739777 
	C166.114594,93.739777 169.953629,93.739777 174.432999,93.739777 
	C174.432999,102.307808 174.432983,110.749184 174.433014,119.190552 
	C174.433029,122.019577 174.395416,124.849251 174.443558,127.677460 
	C174.494049,130.643921 173.966904,134.149673 178.549362,134.101288 
	C182.862427,134.055786 182.318726,130.702164 182.330353,127.927719 
	C182.370819,118.275917 182.346359,108.623833 182.346573,98.971855 
	C182.346619,97.334923 182.346588,95.697990 182.346588,93.672104 
	C186.621384,93.672104 190.494019,93.672104 194.816864,93.672104 
	C194.816864,107.069763 195.165527,120.336739 194.510986,133.554031 
	C194.386032,136.077301 190.719803,139.363434 187.937378,140.574707 
	C184.604874,142.025467 180.467575,141.627472 176.225250,142.003510 
z"/>
<path fill="#2D88C4" opacity="1.000000" stroke="none" 
	d="
M145.086868,129.766678 
	C144.772964,137.665573 142.994293,139.774155 135.636414,141.295349 
	C134.017578,141.630035 132.365417,141.953995 130.721558,141.994217 
	C113.020935,142.427307 111.581154,135.968750 112.101860,124.428436 
	C112.401215,117.794029 112.079391,111.133995 112.196701,104.488312 
	C112.319786,97.515770 115.092361,93.701576 121.933525,92.826363 
	C127.095245,92.166016 132.502304,92.476234 137.683884,93.193947 
	C142.520752,93.863907 145.064957,97.334915 145.069733,102.376244 
	C145.078217,111.350563 145.083130,120.324875 145.086868,129.766678 
M132.840073,112.547272 
	C132.836334,110.055786 132.834106,107.564308 132.828430,105.072823 
	C132.822205,102.345810 132.227432,100.052567 128.889984,99.838020 
	C125.112457,99.595184 124.485992,102.194183 124.454567,105.032860 
	C124.366325,113.004364 124.374397,120.977455 124.413857,128.949570 
	C124.428177,131.843536 125.095566,134.350418 128.835495,134.151932 
	C132.164963,133.975235 132.829803,131.741745 132.828033,128.981033 
	C132.824722,123.831970 132.833923,118.682899 132.840073,112.547272 
z"/>
<path fill="#2A86C4" opacity="1.000000" stroke="none" 
	d="
M16.029018,93.626114 
	C21.805305,93.581108 27.581593,93.536110 34.030502,93.866470 
	C37.864357,95.854759 41.025589,97.467682 44.186821,99.080605 
	C45.329033,102.117653 47.295498,105.114296 47.446762,108.199921 
	C47.792068,115.243584 47.608795,122.364487 46.952374,129.389740 
	C46.424648,135.037735 43.148354,139.136276 36.942051,140.879669 
	C36.426456,140.878387 36.137691,140.942657 36.137691,140.942657 
	C29.747286,141.155060 23.356882,141.367462 16.403299,141.103333 
	C15.587754,140.015091 15.117449,139.404251 15.114995,138.791550 
	C15.058437,124.672554 15.033878,110.553299 15.080341,96.434341 
	C15.083425,95.497238 15.698563,94.562141 16.029018,93.626114 
M27.011843,106.688202 
	C27.011843,115.594185 27.011843,124.500168 27.011843,133.330139 
	C32.574196,134.060196 33.928162,133.549454 34.201263,128.918457 
	C34.647335,121.354347 34.462662,113.741447 34.272133,106.155968 
	C34.166683,101.957588 31.739040,100.285866 27.242510,101.461380 
	C27.168352,102.838776 27.090069,104.292778 27.011843,106.688202 
z"/>
<path fill="#3089C4" opacity="1.000000" stroke="none" 
	d="
M65.467796,123.331375 
	C67.428909,114.490395 69.353470,106.068100 71.057991,97.601509 
	C71.666397,94.579445 72.727119,93.161430 76.219536,93.172920 
	C87.835800,93.211143 87.818626,93.050003 90.064606,104.457520 
	C92.150864,115.053719 94.289703,125.639549 96.380959,136.234772 
	C96.694603,137.823853 96.874718,139.439285 97.169945,141.396088 
	C92.924789,141.396088 89.172859,141.396088 84.939796,141.396088 
	C83.302269,129.360413 81.677803,117.420731 80.053337,105.481041 
	C79.766930,105.485497 79.480522,105.489952 79.194122,105.494408 
	C77.019081,117.384331 74.844048,129.274246 72.626556,141.396271 
	C68.966217,141.396271 65.552246,141.396271 61.610706,141.396271 
	C62.892273,135.333344 64.118347,129.532974 65.467796,123.331375 
z"/>
<path fill="#888888" opacity="1.000000" stroke="none" 
	d="
M382.075256,134.911301 
	C391.018890,134.911331 399.472290,134.911331 408.220398,134.911331 
	C408.220398,136.785721 408.220398,138.175644 408.220398,139.947937 
	C395.863129,139.947937 383.752075,140.196747 371.659821,139.828751 
	C366.633301,139.675781 365.256195,135.675262 366.730316,126.597633 
	C378.448853,126.597633 390.339966,126.597633 402.231110,126.597633 
	C402.239929,125.947632 402.248718,125.297638 402.257538,124.647636 
	C390.390381,124.647636 378.523254,124.647636 366.372620,124.647636 
	C366.372620,122.290359 366.372620,120.921883 366.372620,118.984444 
	C372.374176,118.984444 378.119232,118.984444 383.864319,118.984444 
	C384.008728,118.468689 384.153107,117.952942 384.297516,117.437187 
	C383.173096,116.927513 382.064911,116.025162 380.921448,115.977997 
	C376.600677,115.799789 372.267212,115.961609 367.940918,115.875725 
	C364.255310,115.802567 364.256775,115.729370 364.880463,111.208931 
	C365.447266,111.098381 366.076874,110.869240 366.706818,110.868332 
	C380.847198,110.847984 394.987579,110.852715 409.576752,110.852715 
	C409.745026,112.385368 409.897095,113.770195 410.069061,115.336151 
	C403.360626,116.882339 396.399139,114.803734 390.049652,116.569695 
	C390.131195,117.324280 390.212738,118.078857 390.294281,118.833435 
	C396.033600,118.833435 401.772949,118.833435 408.029663,118.833435 
	C408.029663,123.372147 408.029663,127.376625 408.029663,131.924225 
	C396.148804,131.924225 384.244232,131.924225 371.026123,131.924225 
	C374.597931,136.400284 378.464172,134.254425 382.075256,134.911301 
z"/>
<path fill="#8A8A8A" opacity="1.000000" stroke="none" 
	d="
M242.843887,98.923973 
	C241.474411,99.940895 240.145996,100.928589 238.766418,101.006203 
	C234.797516,101.229462 230.807938,101.084976 226.409927,101.084976 
	C226.409927,108.354393 226.409927,115.361427 226.409927,122.627350 
	C234.641907,122.627350 242.717041,122.627350 251.388824,122.627350 
	C251.388824,113.385704 251.388824,104.329056 251.388824,95.450417 
	C257.313324,93.818420 257.313324,93.818420 258.053101,102.888077 
	C260.336884,103.086853 262.722107,103.294464 265.406128,103.528069 
	C265.406128,105.290497 265.406128,106.827080 265.406128,108.590759 
	C262.859741,108.782822 260.599335,108.953308 257.868896,109.159248 
	C257.868896,119.622322 257.868896,129.864700 257.868896,140.508072 
	C255.677078,140.508072 253.972000,140.508072 251.879776,140.508072 
	C251.879776,136.648376 251.879776,132.869354 251.879776,128.117355 
	C248.473892,128.117355 245.421768,128.117508 242.369629,128.117310 
	C236.544754,128.116943 230.719284,128.066376 224.895279,128.136856 
	C221.965851,128.172272 220.041046,127.335144 220.054382,123.973053 
	C220.090546,114.848007 220.066788,105.722740 220.066788,95.893082 
	C227.175919,95.893082 233.928467,95.811989 240.673080,96.006676 
	C241.425751,96.028404 242.133179,97.617088 242.843887,98.923973 
z"/>
<path fill="#8B8B8B" opacity="1.000000" stroke="none" 
	d="
M277.657104,115.307594 
	C273.179108,109.595566 272.810669,103.847794 276.370575,99.077209 
	C280.276001,93.843590 287.801208,91.855682 294.322662,94.334839 
	C300.411224,96.649429 303.582123,101.536987 303.088806,107.846832 
	C302.373016,117.001793 291.387878,122.492172 282.057800,118.282089 
	C280.573761,117.612434 279.294403,116.489075 277.657104,115.307594 
M291.739929,99.260406 
	C290.102264,99.157394 288.411469,98.743271 286.837372,99.012321 
	C282.832947,99.696762 280.265106,102.052185 280.019836,106.291725 
	C279.795715,110.166443 282.785919,113.496162 286.919128,114.013565 
	C291.249725,114.555672 295.033264,113.385231 296.626160,109.009087 
	C298.139587,104.851181 296.441864,101.605904 291.739929,99.260406 
z"/>
<path fill="#8A8A8A" opacity="1.000000" stroke="none" 
	d="
M321.345215,100.973740 
	C319.720428,100.045921 318.547821,99.118141 317.375244,98.190353 
	C318.287537,97.300262 319.176514,95.668068 320.115875,95.638527 
	C327.071869,95.419868 334.037842,95.520103 340.854248,95.520103 
	C345.509979,113.829292 333.922821,130.935242 316.287689,131.615448 
	C316.204681,129.926224 316.121063,128.225235 316.038971,126.554741 
	C330.371979,124.376221 335.708557,115.384010 335.054230,100.973770 
	C330.667999,100.973770 326.232697,100.973770 321.345215,100.973740 
z"/>
<path fill="#858585" opacity="1.000000" stroke="none" 
	d="
M268.547668,122.943527 
	C281.602570,122.919380 294.216705,122.997093 306.828674,122.865967 
	C310.303864,122.829834 311.385590,124.062965 310.101837,127.978035 
	C304.300934,127.978035 298.273865,127.978035 291.737610,127.978035 
	C291.737610,132.549515 291.737610,136.454819 291.737610,140.767746 
	C289.676727,140.879501 288.116699,140.964096 285.820709,141.088593 
	C285.820709,138.607147 285.822327,136.514969 285.820435,134.422791 
	C285.814728,128.080597 285.814178,128.080353 279.265686,128.079575 
	C275.292603,128.079117 271.319489,128.079498 265.990845,128.079498 
	C266.878357,125.934235 267.492218,124.450424 268.547668,122.943527 
z"/>
<path fill="#8D8D8D" opacity="1.000000" stroke="none" 
	d="
M403.004974,102.219444 
	C406.524506,102.448181 409.859924,102.404449 408.006348,107.922058 
	C400.610504,107.957146 393.622345,106.390976 387.406677,101.206795 
	C381.368683,105.868584 374.486664,108.151512 366.679993,107.816025 
	C365.411835,104.564636 365.714661,102.646637 369.605530,102.301826 
	C375.418793,101.786659 381.233948,101.286736 384.404144,94.927155 
	C384.753723,94.225868 389.943359,94.509247 390.513275,95.589211 
	C393.205048,100.690186 397.808441,101.403694 403.004974,102.219444 
z"/>
<path fill="#828282" opacity="1.000000" stroke="none" 
	d="
M351.000183,139.000000 
	C350.941223,125.394852 350.823486,111.789246 350.931976,98.185432 
	C350.940918,97.064590 352.486084,95.956017 353.317444,94.841751 
	C354.293518,95.977570 356.102203,97.101669 356.118378,98.250984 
	C356.305084,111.524963 356.220459,124.802757 355.705719,138.539322 
	C353.802429,138.999405 352.401337,138.999695 351.000183,139.000000 
z"/>
<path fill="#568FB3" opacity="1.000000" stroke="none" 
	d="
M15.640255,93.507973 
	C15.698563,94.562141 15.083425,95.497238 15.080341,96.434341 
	C15.033878,110.553299 15.058437,124.672554 15.114995,138.791550 
	C15.117449,139.404251 15.587754,140.015091 15.958122,140.980286 
	C15.351497,140.632111 14.000046,139.935226 13.994638,139.228058 
	C13.882272,124.534691 13.907404,109.840073 13.988490,95.146164 
	C13.991734,94.558418 14.811934,93.975174 15.640255,93.507973 
z"/>
<path fill="#568FB3" opacity="1.000000" stroke="none" 
	d="
M44.143784,98.782974 
	C41.025589,97.467682 37.864357,95.854759 34.481873,94.047157 
	C37.540661,95.396767 40.820702,96.941055 44.143784,98.782974 
z"/>
<path fill="#8D8D8D" opacity="1.000000" stroke="none" 
	d="
M350.972656,139.391541 
	C352.401337,138.999695 353.802429,138.999405 355.624939,139.002930 
	C354.852356,142.593185 352.901978,141.209412 350.972656,139.391541 
z"/>
<path fill="#568FB3" opacity="1.000000" stroke="none" 
	d="
M36.192390,141.037628 
	C36.137691,140.942657 36.426456,140.878387 36.573795,140.885468 
	C36.721134,140.892563 36.549320,141.147842 36.549320,141.147842 
	C36.549320,141.147842 36.247086,141.132614 36.192390,141.037628 
z"/>
<path fill="#F1FAFD" opacity="1.000000" stroke="none" 
	d="
M132.838989,113.040558 
	C132.833923,118.682899 132.824722,123.831970 132.828033,128.981033 
	C132.829803,131.741745 132.164963,133.975235 128.835495,134.151932 
	C125.095566,134.350418 124.428177,131.843536 124.413857,128.949570 
	C124.374397,120.977455 124.366325,113.004364 124.454567,105.032860 
	C124.485992,102.194183 125.112457,99.595184 128.889984,99.838020 
	C132.227432,100.052567 132.822205,102.345810 132.828430,105.072823 
	C132.834106,107.564308 132.836334,110.055786 132.838989,113.040558 
z"/>
<path fill="#EEFAFE" opacity="1.000000" stroke="none" 
	d="
M27.011814,106.217491 
	C27.090069,104.292778 27.168352,102.838776 27.242510,101.461380 
	C31.739040,100.285866 34.166683,101.957588 34.272133,106.155968 
	C34.462662,113.741447 34.647335,121.354347 34.201263,128.918457 
	C33.928162,133.549454 32.574196,134.060196 27.011843,133.330139 
	C27.011843,124.500168 27.011843,115.594185 27.011814,106.217491 
z"/>
<path fill="#FCFCFC" opacity="1.000000" stroke="none" 
	d="
M292.104370,99.438904 
	C296.441864,101.605904 298.139587,104.851181 296.626160,109.009087 
	C295.033264,113.385231 291.249725,114.555672 286.919128,114.013565 
	C282.785919,113.496162 279.795715,110.166443 280.019836,106.291725 
	C280.265106,102.052185 282.832947,99.696762 286.837372,99.012321 
	C288.411469,98.743271 290.102264,99.157394 292.104370,99.438904 
z"/>
</svg>